# xmcd CD database file
# Copyright (C) 1996 Ti Kan
#
# Track frame offsets:
#  150
#  20297
#  45682
#  66997
#  80207
#  111860
#  134275
#  150672
#  175260
#  210970
#
# Disc length: 3028 seconds
#
# Revision: 2
# Processed by: cddbd v1.4b41PL1 Copyright (c) Steve Scherf et al.
# Submitted via: CDWizzard Release:4.12
#
DISCID=830bd20a
DTITLE=Big Jack Johnson - We Got To Stop This Killin'
DYEAR=1900
DGENRE=
TTITLE0=We Got To Stop This Killin'
TTITLE1=Hummin' Blues
TTITLE2=Breakdown Blues
TTITLE3=It's The Fourth Of July
TTITLE4=Lonesome Road
TTITLE5=No Good Cow
TTITLE6=Cracklin' Bread
TTITLE7=Sweet Home Mississippi
TTITLE8=Black Rooster
TTITLE9=Big Foot Woman
EXTD=
EXTT0=
EXTT1=
EXTT2=
EXTT3=
EXTT4=
EXTT5=
EXTT6=
EXTT7=
EXTT8=
EXTT9=
PLAYORDER=
